<svg id="Layer_1" data-name="Layer 1" xmlns="http://www.w3.org/2000/svg" viewBox="0 0 1081.02 502.86"><path d="M582.33,330.21c88.76-.34,176.87,7.05,263.89,24.61,64.23,13,126.82,31.56,185.07,62.42,25.2,13.36,48.39,29.49,66.56,52.09,30,37.31,25.39,86.38-9.81,118.94-34.72,32.11-76.59,50.84-119.68,67.63C938.69,667.47,908,675.76,877,683.07c-13.57,3.2-13.93,4-10.63,17.38,8.36,33.93-3.49,61.53-27.61,84.61C808.53,814,771.35,827.52,730.3,831.7a4.15,4.15,0,0,1-.86,0c-4.85-.55-12.49,4.15-13.83-1.45-1.15-4.81,7.65-5.26,12-7.39,25.79-12.53,45.93-30.34,54.81-58.42,5.65-17.88,3.71-35.67-3.22-52.93-2.64-6.57-7.5-9.78-14.91-8.74-30.64,4.32-61.42,7.36-92.28,9.45-37.21,2.53-74.46,1.61-111.65-.27-19.75-1-39.52-1.45-59.26-2.05C441.5,708.12,382.08,704.85,323.6,692c-5.31-1.16-7.3-.27-7.4,5.4a30.06,30.06,0,0,1-8.19,20.3c-4.81,5.17-4.36,10-.58,15.41,5.88,8.47,11.45,17.14,17.18,25.72,1.87,2.79,5,5.5,1.16,8.88-3.35,3-7.06,2.35-10.14-.33a43.14,43.14,0,0,1-6.76-7.69c-3.31-4.67-6.32-9.55-9.42-14.37a17.6,17.6,0,0,0-10.93-7.79c-9.54-2.33-15.76,3-15,12.73.62,7.41,1.12,14.84,2,22.23.8,7-2.91,7.15-7.85,5.47a10.45,10.45,0,0,1-6.83-7.25c-1.33-4.66-2.15-9.47-3.27-14.19-1-4.26,1.7-10.08-3.34-12.57a43.27,43.27,0,0,0-20.73-4.6c-4.27.18-6.62,4.11-8.38,7.87-3,6.49-6,13-9.17,19.42-1.9,3.81-4.62,7.2-9.43,4.53-4.44-2.47-5.3-6.6-3.06-11.1a100.11,100.11,0,0,1,5.2-8.89c7-11,7.42-22.49.18-33.16-8.14-12-8-23.82-2.86-36.67,5.79-14.53,3.3-18.31-11-23.36-48.17-17-94.1-38.12-130.57-75.37-12.63-12.89-22-27.84-26-45.73-5.5-24.7,2.57-45.8,17.71-64.74,23.26-29.1,53.6-48.82,87-64.36,61.51-28.63,126.45-45.21,193-57.06,49.17-8.75,98.64-13.13,148.28-17.32C517.06,330.67,549.65,330.09,582.33,330.21ZM551.52,517.85A87.65,87.65,0,0,0,549,493.17c-10.41-38.95-41.49-62.77-78.59-58.41-26.91,3.16-49.36,15.85-66.2,37.5-9.84,12.65-17,26.48-17.24,43-.43,28.89,13,51,34.57,68.73,29.12,23.92,68.85,26.81,96.37,6.48C542,572.61,551.34,547.15,551.52,517.85ZM824.78,523c-.23-7.71,0-15.42-1-23.14-4.61-36.05-19.61-67.94-38.73-98.27-4.94-7.83-10.58-11.27-20.7-8.89-8.39,2-7.62,4.33-3.93,9.91a163,163,0,0,1,14.86,29c1.27,3.17,3.5,6.65,1,9.72s-6.31,1.26-9.64.65c-37.82-6.87-60.32,7.49-70.24,44.79-5.09,19.17-4.76,38.51-1.77,57.92,1.63,10.61,6,20.18,10.8,29.72,14.79,29.6,56.17,33,76.58,16.81,7.05-5.61,15-9.57,23.69-4.37,6.7,4,8.24.75,10-4.72C821.7,562.86,825.43,543.27,824.78,523Zm-180.62-6.8c-.62-28.38-5.19-56.3-9.6-84.23-2.19-13.82-4.39-27.68-8.55-41.09-1.08-3.48-2.57-8.77-7-7-7.78,3.21-17.45-1-23.82,6.4-.78.9-.57,2.75-.6,4.17,0,2.57,0,5.15.11,7.72,2,51.64,9.81,103.07,5.59,155-1,11.67-1.21,23.4-1.88,35.09-.3,5.27,1.56,8,7.29,8a138,138,0,0,0,23.94-1.68c5.44-1,8.42-4,9.15-9.7C641.9,564.73,642.92,540.46,644.16,516.19ZM281.54,468.53a22,22,0,0,0,12.69.26c7.29-1.76,9.57,1.28,8.37,8.1-.35,2-.7,3.93-1,5.91-3.48,21.68-8.31,43.13-4.14,65.47,6.61,35.51,36.3,56.82,68.77,48.8,5.06-1.25,5.94-3,4.08-7.64C364.1,574,360.12,572,344.45,577.13c-9.86,3.23-11.93,2.14-14.56-7.93a175.91,175.91,0,0,1-2.39-79.86c4.13-20.68,4.12-20.68,25-24.27,1.12-.19,2.26-.38,3.39-.53,8.09-1.05,15.8-9.19,14.33-17.75-1.36-7.84-9-1.85-13.5-3.49-1.24-.45-2.83.13-4.26.16-8.3.19-9.51-1.79-6.44-9.75,1.89-4.88,6-8.91,6.18-15.48C327,433.27,303.44,449.05,281.54,468.53Zm630.07,113c9.61-7,16.06-6.58,22.12,1.12,4.09,5.19,10.11,4.34,15.88,2.49,12.21-3.92,21.49-11.89,28.9-21.89,19.84-26.79,18.11-64.27-4.62-88.56-9.53-10.19-20.09-21-35.63-19.59-10.54.92-15.75-3.24-20.08-11.84a126.92,126.92,0,0,0-26.91-36.44c-3.58-3.32-7.86-4.79-11.57-1.53-4.47,3.93.91,6.49,2.76,9.06,25.27,35,41.6,73,39.45,117.22C921.12,547.9,917.32,563.67,911.61,581.55ZM261.24,731.11c18.11.13,30.93-6.3,37.67-21.49,6.27-14.1,3.27-27.6-6.64-39.11-14-16.2-46.75-16.24-63.15-.28-9.78,9.53-13,21.31-10,34.54s11.9,21.1,25.2,23.81C250.5,729.84,256.62,731.46,261.24,731.11ZM185.63,552.26c0,11.07-3.14,13.77-11.72,12.53-4.07-.58-7.54-2.41-11-4.59-2-1.25-3.75-5-6.33-2.93s-1.92,5.67-.87,8.82c3.86,11.51,26.47,21.72,37.59,16.95a17.1,17.1,0,0,0,9.88-10.17,35.18,35.18,0,0,0,1.14-19.45c-4-19.1-11.19-35.87-30.1-45.41-7-3.51-11-10-9.14-18.59,2.57-11.6,10.38-16.12,22.44-13.49,3.69.81,8,3.77,11.23-.29,3.93-5,7.27-11.95,5-17.27-2.13-4.88-9.6-5.22-15.51-4.45A15.94,15.94,0,0,0,185,455c-19.06,7.08-30.33,20.71-34.42,40.53-2.71,13.13,1.28,23.7,11.88,31.74,4.57,3.45,9.47,6.45,14.09,9.83C182.42,541.42,185.53,547.29,185.63,552.26Zm814.44,57.86a22,22,0,0,0,3.63-1.2c48.85-30.73,56.67-89.81,34-134.69-1.42-2.81-3.5-6.45-7-4.54-2.77,1.49.12,4.56.86,6.82,5.92,18.21,13.08,36.3,9,56-1.37,6.52-3,15.35-11.66,14.48-8-.81-8.28-9.15-8.15-15.86.37-18.91-3.87-36.89-10.4-54.46-1.51-4.08-3.29-8-7-10.51-2.06-1.38-4.59-3.64-6.92-1.56-2,1.77.1,4.24.93,6.27a145.09,145.09,0,0,1,10.84,61.21c-.27,7.13-.57,14.43.58,21.41,2.22,13.55,7,15.27,18.33,7.6,1.83-1.24,3.68-3.52,6-2.2,2.76,1.55,2,4.54,1.3,7-.87,3-1.72,6.17-3.39,8.74-4.25,6.52-10.46,11.29-16,16.66S1002.77,600.88,1000.07,610.12ZM135.35,569.64c-9.33-41.93-9.27-41.92-1.34-86.56.79-4.45.63-9.11.53-13.66a6.66,6.66,0,0,0-5.57-6.74c-8.56-1.81-24.57,11.74-24.87,21.38a51.92,51.92,0,0,1,7.28-2.21c5-.8,8.77,1.42,9.25,6.52a50.44,50.44,0,0,1-3.38,23.45c-2.17,5.35-9,4-13.84,5.1-7.16,1.57-11.94,5.5-13.8,12.48-3.61,13.52,8.48,38.72,21.19,44.81,4.66,2.23,8.83,2.76,11.7-2.58C125.63,565.81,129.85,565,135.35,569.64Z" transform="translate(-36.67 -330.2)"/><path d="M508.89,515.56c-.37,11.46-1.46,22.84-5.1,33.78-8.66,26-36.54,35.1-59,19.38-29.94-20.93-31.67-72.92-2.87-95.26,11.66-9,25.32-12,39.76-8.71,12.63,2.84,20.06,11.67,23.62,23.71A82.18,82.18,0,0,1,508.89,515.56Z" transform="translate(-36.67 -330.2)"/><path d="M731.62,519.72c0-5.73.08-11.46,0-17.18-.29-14.37,3.12-27.22,17.37-33.6,14.81-6.62,27.68-.46,38.61,9.29,22.92,20.45,23.86,63.83,2,85.65-10.11,10.11-22.27,15.41-36.67,10.33-13.87-4.88-21-16.41-21.29-33C731.53,534,731.63,526.88,731.62,519.72Z" transform="translate(-36.67 -330.2)"/><path d="M978.84,522.43c-.56,13.07-2.63,24.8-10.67,34.61-4.82,5.88-10.86,9.49-18.79,7.67-7.62-1.75-10.18-7.9-11.24-14.66-3-19-3.72-38.17-.79-57.17,2.33-15.22,13.21-19.14,25.46-9.62C975.82,493.38,978.07,508.09,978.84,522.43Z" transform="translate(-36.67 -330.2)"/><path d="M252,682.92c9.11.27,14.46,4.06,14.34,10.14-.14,6.74-7.54,13.26-14.64,12.9-6.67-.34-13.67-6.55-13.59-12.07C238.18,687.6,244.4,682.68,252,682.92Z" transform="translate(-36.67 -330.2)"/><path d="M97.08,539.44c.31-1.74.68-4,1.11-6.21.69-3.6,2.28-6.44,6.29-7.16s6.74,1,8.76,4.06c4.73,7.07,6.59,15.08,6.77,23.46.08,3.67-1.7,6.81-5.4,7.88a9.57,9.57,0,0,1-10.19-2.73C99.52,553.46,97.86,546.9,97.08,539.44Z" transform="translate(-36.67 -330.2)"/></svg>